<?xml version="1.0" encoding="UTF-8"?>
<svg class="css-1y5supu" viewBox="0 0 300 71" xmlns="http://www.w3.org/2000/svg">
<g transform="matrix(.85366 0 0 .85366 2.3171 -7.0732)" fill="#506A85" featurekey="symbol1">
<rect x="28" y="47" width="46" height="2"/>
<rect x="37" y="53" width="28" height="2"/>
<path d="M85.564,80H14.435C11.438,80,9,77.562,9,74.564V25.436C9,22.438,11.438,20,14.435,20h71.129C88.562,20,91,22.438,91,25.436  v49.129C91,77.562,88.562,80,85.564,80z M14.435,22C12.541,22,11,23.541,11,25.436v49.129C11,76.459,12.541,78,14.435,78h71.129  C87.459,78,89,76.459,89,74.564V25.436C89,23.541,87.459,22,85.564,22H14.435z"/>
<path d="m22.197 35.306c-2.385 0-4.326-1.94-4.326-4.326s1.941-4.327 4.326-4.327c2.386 0 4.327 1.941 4.327 4.327s-1.941 4.326-4.327 4.326zm0-6.654c-1.283 0-2.326 1.044-2.326 2.327 0 1.282 1.043 2.326 2.326 2.326s2.327-1.044 2.327-2.326c-1e-3 -1.283-1.045-2.327-2.327-2.327z"/>
<path d="m33.285 35.306c-2.385 0-4.326-1.94-4.326-4.326s1.941-4.327 4.326-4.327c2.386 0 4.327 1.941 4.327 4.327s-1.942 4.326-4.327 4.326zm0-6.654c-1.283 0-2.326 1.044-2.326 2.327 0 1.282 1.043 2.326 2.326 2.326s2.327-1.044 2.327-2.326c-1e-3 -1.283-1.045-2.327-2.327-2.327z"/>
<path d="m44.373 35.306c-2.386 0-4.327-1.94-4.327-4.326s1.941-4.327 4.327-4.327c2.385 0 4.326 1.941 4.326 4.327s-1.941 4.326-4.326 4.326zm0-6.654c-1.283 0-2.327 1.044-2.327 2.327 0 1.282 1.044 2.326 2.327 2.326s2.326-1.044 2.326-2.326c0-1.283-1.043-2.327-2.326-2.327z"/>
</g>
<g transform="matrix(1.9546 0 0 1.9546 98.045 1.2749)" fill="#506A85" featurekey="text1">
<path d="m1 18.2c2.46-0.94 5.04-2.08 7.5-3.42v1.26c-2.04 1.06-3.88 2.2-6.24 2.94 2.36 0.76 4.2 1.9 6.24 2.96v1.26c-2.46-1.34-5.04-2.48-7.5-3.42v-1.58zm21.86-5.86c-1.1 0.08-1.48 0.24-1.48 0.74v9.42c0 0.5 0.38 0.66 1.48 0.74v0.76c-1.9-0.06-3.88-0.06-5.78 0v-0.76c1.1-0.08 1.48-0.24 1.48-0.74v-4.32h-4.26v4.32c0 0.5 0.38 0.66 1.48 0.74v0.76c-1.9-0.06-3.88-0.06-5.78 0v-0.76c1.1-0.08 1.48-0.24 1.48-0.74v-9.42c0-0.5-0.38-0.66-1.48-0.74v-0.76c1.9 0.06 3.88 0.06 5.78 0v0.76c-1.1 0.08-1.48 0.24-1.48 0.74v4.3h4.26v-4.3c0-0.5-0.38-0.66-1.48-0.74v-0.76c1.9 0.06 3.88 0.06 5.78 0v0.76zm11.88 9.12c0.48 1.26 0.78 1.68 2.1 1.78v0.76c-2.02-0.06-4.04-0.06-6.06 0v-0.76c1.18-0.08 1.64-0.24 1.34-1.04l-0.9-2.42h-3.74l-0.8 2.42c-0.26 0.8 0.58 0.96 1.98 1.04v0.76c-1.64-0.06-3.46-0.06-5.1 0v-0.76c1.4-0.1 1.94-0.42 2.26-1.34l3.52-10.42h1.64zm-6.98-2.48h3.16l-1.68-4.48zm14.08 3.52c0 0.5 0.38 0.66 1.48 0.74v0.76c-1.9-0.06-3.88-0.06-5.78 0v-0.76c1.1-0.08 1.48-0.24 1.48-0.74v-9.42c0-0.5-0.38-0.66-1.48-0.74v-0.76c1.9 0.06 3.88 0.06 5.78 0v0.76c-1.1 0.08-1.48 0.24-1.48 0.74v9.42zm7.74-10.92c3.92 0 6.7 1.72 6.7 6.2 0 5.2-3.88 6.22-5.44 6.22-1.14 0-2.2-0.34-3.6-0.34-1.16 0-1.96 0.18-2.92 0.34v-0.78c1-0.22 1.44-0.38 1.44-0.96v-8.96c0-0.66-0.34-0.88-1.32-0.96v-0.76c1.94 0.08 3.4 0 5.14 0zm0.58 11.62c2.2 0.04 3-2.28 3-5.48 0-3.3-1.18-5.34-3.62-5.34-0.2 0-0.52 0-0.96 0.04v10.02c0 0.66 0.74 0.74 1.58 0.76zm13.56-11.94c3.42 0 5.96 2.6 5.96 6.6 0 3.74-2.54 6.44-5.94 6.44-3.42 0-5.96-2.6-5.96-6.6 0-3.74 2.54-6.44 5.94-6.44zm0.34 12.18c1.52 0 2.64-1.62 2.64-5.06 0-3.52-1.32-6.26-3.3-6.26-1.52 0-2.64 1.62-2.64 5.06 0 3.52 1.32 6.26 3.3 6.26zm15.78-2.92h0.88c-0.42 1.22-0.62 2.36-0.64 3.48-3.22-0.08-6.12-0.08-9.2 0v-0.76c1.1-0.08 1.44-0.24 1.44-0.74v-9.44c0-0.5-0.34-0.64-1.44-0.72v-0.76h8.84c0.26 0 0.3 0.06 0.34 0.36l0.32 2.38h-0.86l-0.24-0.42c-0.6-1.04-1-1.46-2.12-1.46h-1.72c-0.18 0-0.3 0.12-0.3 0.3v4.44h2.14c1 0 1.28-0.38 1.46-1.22h0.68c-0.1 1.16-0.1 2.18 0 3.34h-0.68c-0.18-0.82-0.44-1.26-1.46-1.26h-2.14v4.78c0 0.18 0.12 0.3 0.3 0.3h1.18c1.46 0 2.1-0.26 2.58-1.26zm12.12-10.94h1.86l-5.34 16.02h-1.86zm11.26 8.62v1.58c-2.46 0.94-5.04 2.08-7.5 3.42v-1.26c2.04-1.06 3.88-2.2 6.24-2.96-2.36-0.74-4.2-1.88-6.24-2.94v-1.26c2.46 1.34 5.04 2.48 7.5 3.42z"/>
</g>
</svg>
